<svg xmlns="http://www.w3.org/2000/svg" viewBox="0 0 246.72 64.5"><defs><style>.cls-1{fill:#222;}</style></defs><g id="Capa_2" data-name="Capa 2"><g id="Capa_1-2" data-name="Capa 1"><path class="cls-1" d="M166.62,60.53a3.73,3.73,0,0,1-3.74,3.74H156a3.74,3.74,0,0,1-3.33-2h0l-22.51-51a3.72,3.72,0,0,1,3.51-5h7.73a3.74,3.74,0,1,1,0,7.48h-2.14l19.12,43.14h4.47A3.73,3.73,0,0,1,166.62,60.53ZM188.7,11.35A3.67,3.67,0,0,0,189,9.91a3.74,3.74,0,0,0-3.74-3.74H178.1a3.74,3.74,0,1,0,0,7.48h1.46l-13,29.86h0a3.63,3.63,0,0,0-.31,1.48,3.75,3.75,0,0,0,6.89,2h0v0a3.59,3.59,0,0,0,.46-1.06Zm31.11-1h-9.87V0h-3.59V10.32h-9.86v3.59h9.86V24.23h3.59V13.91h9.87Zm26.91,0h-9.87V0h-3.59V10.32h-9.87v3.59h9.87V24.23h3.59V13.91h9.87Z"/><path class="cls-1" d="M0,51.9H4.2l2.79,8,2.77-8H14L8.92,64.27H5.09Z"/><path class="cls-1" d="M27,59.44h-8.5a2.18,2.18,0,0,0,2.39,2,3.2,3.2,0,0,0,2.5-1.13l3,1.45a6.41,6.41,0,0,1-5.45,2.7c-3.9,0-6.51-2.5-6.51-6.29s2.52-6.54,6.33-6.54a5.94,5.94,0,0,1,6.34,6.22C27.07,58.42,27,59,27,59.44Zm-8.47-2.59H23c-.24-1.41-1-2.16-2.29-2.16S18.76,55.46,18.51,56.85Z"/><path class="cls-1" d="M48,56.76v7.51H46.87V57a3.74,3.74,0,1,0-7.47,0v7.26H38.31V57a3.75,3.75,0,1,0-7.5,0v7.26H29.72V52.35h1.07l0,2.21a4.09,4.09,0,0,1,4.07-2.43,4.3,4.3,0,0,1,4.2,2.74,4.22,4.22,0,0,1,4.22-2.74A4.38,4.38,0,0,1,48,56.76Z"/><path class="cls-1" d="M60.35,56.76v7.51H59.29l0-2.63v-.25a5,5,0,0,1-4.74,3.11c-2.29,0-3.84-1.34-3.84-3.38s1.91-3.57,4.79-3.57a15.09,15.09,0,0,1,3.79.48V57A3.63,3.63,0,0,0,55.45,53,4.39,4.39,0,0,0,52,54.51l-.53-.7a5.47,5.47,0,0,1,4.21-1.68A4.38,4.38,0,0,1,60.35,56.76Zm-1.09,2.09a14.13,14.13,0,0,0-3.65-.48c-2.27,0-3.77,1.09-3.77,2.72s1.16,2.57,3,2.57A4.61,4.61,0,0,0,59.26,58.85Z"/><path class="cls-1" d="M63.42,63.3l.5-.71a5.46,5.46,0,0,0,3.43,1c1.91,0,3.18-1,3.18-2.37,0-1.25-1.16-2-2.68-2.43l-1.39-.4c-1.81-.53-3.08-1.25-3.08-3,0-2,1.61-3.27,4-3.27a7,7,0,0,1,3.91,1l-.5.79A5.84,5.84,0,0,0,67.46,53c-1.75,0-2.95.87-2.95,2.23s1,1.84,2.38,2.22l1.41.41c1.71.5,3.36,1.39,3.36,3.3S70,64.5,67.35,64.5A5.82,5.82,0,0,1,63.42,63.3Z"/><path class="cls-1" d="M93,56.76v7.51H91.89V57a3.74,3.74,0,1,0-7.47,0v7.26H83.33V57a3.75,3.75,0,1,0-7.49,0v7.26H74.75V52.35h1.07l0,2.21a4.09,4.09,0,0,1,4.07-2.43,4.3,4.3,0,0,1,4.2,2.74,4.22,4.22,0,0,1,4.22-2.74A4.37,4.37,0,0,1,93,56.76Z"/><path class="cls-1" d="M105.38,56.76v7.51h-1.06l0-2.63v-.25a5.06,5.06,0,0,1-4.74,3.11c-2.3,0-3.84-1.34-3.84-3.38s1.91-3.57,4.79-3.57a15.09,15.09,0,0,1,3.79.48V57A3.63,3.63,0,0,0,100.48,53,4.43,4.43,0,0,0,97,54.51l-.52-.7a5.45,5.45,0,0,1,4.2-1.68A4.39,4.39,0,0,1,105.38,56.76Zm-1.09,2.09a14.13,14.13,0,0,0-3.65-.48c-2.27,0-3.77,1.09-3.77,2.72s1.16,2.57,3,2.57A4.61,4.61,0,0,0,104.29,58.85Z"/><path class="cls-1" d="M108.45,63.3l.5-.71a5.46,5.46,0,0,0,3.43,1c1.9,0,3.18-1,3.18-2.37,0-1.25-1.16-2-2.68-2.43l-1.39-.4c-1.81-.53-3.09-1.25-3.09-3,0-2,1.62-3.27,4-3.27a7,7,0,0,1,3.91,1l-.5.79a5.86,5.86,0,0,0-3.32-.91c-1.75,0-2.95.87-2.95,2.23s1,1.84,2.38,2.22l1.41.41c1.7.5,3.36,1.39,3.36,3.3S115,64.5,112.38,64.5A5.82,5.82,0,0,1,108.45,63.3Z"/></g></g></svg>