<svg xmlns="http://www.w3.org/2000/svg" viewBox="0 0 116.76 95.2"><defs><style>.cls-1{fill:#222;}</style></defs><g id="Capa_2" data-name="Capa 2"><g id="Capa_1-2" data-name="Capa 1"><path class="cls-1" d="M36.67,60.53a3.74,3.74,0,0,1-3.74,3.74H26.08a3.75,3.75,0,0,1-3.33-2h0L.24,11.21a3.72,3.72,0,0,1,3.5-5h7.74a3.74,3.74,0,0,1,0,7.48H9.34L28.46,56.79h4.47A3.74,3.74,0,0,1,36.67,60.53ZM58.75,11.35A3.85,3.85,0,0,0,59,9.91a3.74,3.74,0,0,0-3.75-3.74H48.15a3.74,3.74,0,1,0,0,7.48h1.46l-13,29.86h0a3.8,3.8,0,0,0-.3,1.48,3.75,3.75,0,0,0,6.89,2h0v0a3.87,3.87,0,0,0,.46-1.06Zm31.1-1H80V0H76.4V10.32H66.53v3.59H76.4V24.23H80V13.91h9.86Zm26.91,0H106.9V0h-3.6V10.32H93.44v3.59h9.86V24.23h3.6V13.91h9.86Z"/><path class="cls-1" d="M0,82.6H4.2l2.79,8,2.77-8H14L8.92,95H5.09Z"/><path class="cls-1" d="M27,90.14h-8.5a2.18,2.18,0,0,0,2.39,2,3.2,3.2,0,0,0,2.5-1.13l3,1.45a6.4,6.4,0,0,1-5.45,2.7c-3.9,0-6.51-2.5-6.51-6.29s2.52-6.54,6.33-6.54a5.94,5.94,0,0,1,6.34,6.22C27.07,89.12,27,89.71,27,90.14Zm-8.47-2.59H23c-.24-1.41-1-2.16-2.29-2.16S18.76,86.16,18.51,87.55Z"/><path class="cls-1" d="M48,87.46V95H46.87V87.71a3.74,3.74,0,1,0-7.47,0V95H38.31V87.71a3.75,3.75,0,1,0-7.5,0V95H29.72V83.05h1.07l0,2.21a4.09,4.09,0,0,1,4.07-2.43,4.3,4.3,0,0,1,4.2,2.74,4.22,4.22,0,0,1,4.22-2.74A4.38,4.38,0,0,1,48,87.46Z"/><path class="cls-1" d="M60.36,87.46V95H59.29l0-2.63v-.25a5.07,5.07,0,0,1-4.75,3.11c-2.29,0-3.84-1.34-3.84-3.38s1.91-3.57,4.79-3.57a15.22,15.22,0,0,1,3.8.48V87.66a3.64,3.64,0,0,0-3.82-3.93A4.39,4.39,0,0,0,52,85.21l-.53-.7a5.47,5.47,0,0,1,4.21-1.68A4.39,4.39,0,0,1,60.36,87.46Zm-1.09,2.09a14.26,14.26,0,0,0-3.66-.48c-2.27,0-3.77,1.09-3.77,2.72s1.16,2.57,3,2.57A4.62,4.62,0,0,0,59.27,89.55Z"/><path class="cls-1" d="M63.42,94l.5-.71a5.46,5.46,0,0,0,3.43,1c1.91,0,3.18-1,3.18-2.36,0-1.25-1.16-2-2.68-2.43l-1.39-.4c-1.81-.53-3.08-1.25-3.08-3,0-2,1.61-3.26,4-3.26a7,7,0,0,1,3.91,1l-.5.79a5.84,5.84,0,0,0-3.32-.91c-1.75,0-2.95.87-2.95,2.23s1,1.84,2.39,2.22l1.4.41c1.71.5,3.36,1.39,3.36,3.29S70,95.2,67.35,95.2A5.82,5.82,0,0,1,63.42,94Z"/><path class="cls-1" d="M93,87.46V95H91.89V87.71a3.74,3.74,0,1,0-7.47,0V95H83.33V87.71a3.75,3.75,0,1,0-7.49,0V95H74.75V83.05h1.07l0,2.21a4.09,4.09,0,0,1,4.07-2.43,4.3,4.3,0,0,1,4.2,2.74,4.22,4.22,0,0,1,4.22-2.74A4.37,4.37,0,0,1,93,87.46Z"/><path class="cls-1" d="M105.38,87.46V95h-1.06l0-2.63v-.25a5.06,5.06,0,0,1-4.74,3.11c-2.3,0-3.84-1.34-3.84-3.38s1.91-3.57,4.79-3.57a15.09,15.09,0,0,1,3.79.48V87.66a3.63,3.63,0,0,0-3.81-3.93A4.43,4.43,0,0,0,97,85.21l-.52-.7a5.45,5.45,0,0,1,4.2-1.68A4.39,4.39,0,0,1,105.38,87.46Zm-1.09,2.09a14.13,14.13,0,0,0-3.65-.48c-2.27,0-3.77,1.09-3.77,2.72s1.16,2.57,3,2.57A4.61,4.61,0,0,0,104.29,89.55Z"/><path class="cls-1" d="M108.45,94l.5-.71a5.46,5.46,0,0,0,3.43,1c1.9,0,3.18-1,3.18-2.36,0-1.25-1.16-2-2.68-2.43l-1.39-.4c-1.81-.53-3.09-1.25-3.09-3,0-2,1.62-3.26,4-3.26a7,7,0,0,1,3.91,1l-.5.79a5.86,5.86,0,0,0-3.32-.91c-1.75,0-2.95.87-2.95,2.23s1,1.84,2.38,2.22l1.41.41c1.7.5,3.36,1.39,3.36,3.29S115,95.2,112.38,95.2A5.82,5.82,0,0,1,108.45,94Z"/></g></g></svg>